<svg width="30" height="20" viewBox="0 0 30 20" fill="none" xmlns="http://www.w3.org/2000/svg">
<g clip-path="url(#clip0_1051_8170)">
<path d="M28.125 0H1.875C0.839466 0 0 0.839466 0 1.875V18.125C0 19.1605 0.839466 20 1.875 20H28.125C29.1605 20 30 19.1605 30 18.125V1.875C30 0.839466 29.1605 0 28.125 0Z" fill="#FAF9F9"/>
<path d="M5.55 11.1875V16.2875H10.7125L11.25 15.525L11.775 16.2875H14.9313V15.1375H15.2813C15.599 15.1403 15.9152 15.0939 16.2188 15V16.2875H18.3625V15.375L19.0875 16.2875H28.85C29.2513 16.2945 29.6461 16.186 29.9875 15.975V18.125C29.9875 18.125 30 20.008 28.125 20H1.875C0 20 0 18.125 0 18.125V9.625H1.425L1.71875 8.8625H2.41875L2.70625 9.625H14.1687V8.71249L14.8938 9.625H17.9V9.1625C18.3408 9.47628 18.8716 9.63858 19.4125 9.625H21.2063L21.4938 8.8625H22.1938L22.5 9.625H25.5625V8.6375L26.1875 9.625H28.3V4.525H26.0562V5.5625L25.3875 4.525H23.425V5.8375L22.8 4.525H19.4625C18.8979 4.50864 18.3452 4.6899 17.9 5.0375V4.525H6.875L6.5 5.625L6.125 4.5H3.625V5.8125L3.0375 4.5H1L0 6.875V1.875C0 -3.94475e-06 1.87253 -3.73958e-06 1.875 -3.73958e-06H28.125C30 -0.0173354 30 1.875 30 1.875V11.1875H11.7875L11.25 11.9375L10.725 11.1875H5.55Z" fill="#296DB6"/>
<path d="M9.19575 12.7249V11.9749H6.3645V15.4999H9.19575V14.7499H7.2145V14.1249H9.15825V13.3624H7.2145V12.7374L9.19575 12.7249ZM11.752 13.7499L13.1645 11.9999H12.127L11.252 13.0874L10.3833 11.9749H9.32075L10.752 13.7499L9.377 15.4999H10.402L11.252 14.3749L12.102 15.5124H13.177L11.752 13.7499ZM15.2708 11.9999H13.327V15.4999H14.1833V14.3374H15.2458C15.5733 14.3623 15.8961 14.2473 16.1343 14.0211C16.3724 13.7948 16.5038 13.4783 16.4958 13.1499C16.5095 12.8254 16.383 12.5106 16.1486 12.2858C15.9142 12.061 15.5944 11.9477 15.2708 11.9749V11.9999ZM15.1958 13.6124H14.1833V12.7249H15.1958C15.4339 12.7249 15.627 12.918 15.627 13.1562C15.627 13.3943 15.4339 13.5874 15.1958 13.5874V13.6124ZM19.127 14.2374C19.7414 14.1649 20.1807 13.6081 20.1083 12.9937C20.0358 12.3793 19.4789 11.9399 18.8645 12.0124H16.952V15.4999H17.802V14.2499H18.1895L19.2395 15.4999H20.3083L19.127 14.2374ZM18.7895 13.5374H17.802V12.7249H18.7895C18.9006 12.7105 19.0126 12.7448 19.0964 12.8191C19.1803 12.8934 19.2279 13.0004 19.227 13.1124C19.2301 13.2252 19.1831 13.3335 19.0987 13.4083C19.0142 13.483 18.901 13.5166 18.7895 13.4999V13.5374ZM23.352 12.7624V12.0124H20.5083V15.4999H23.352V14.7499H21.3708V14.1249H23.302V13.3624H21.3708V12.7374L23.352 12.7624ZM25.7083 13.3874H24.8895C24.763 13.4129 24.6336 13.3595 24.5618 13.2522C24.49 13.1449 24.49 13.0049 24.5618 12.8977C24.6336 12.7904 24.763 12.737 24.8895 12.7624H26.4083L26.7458 12.0124H24.9145C24.6029 11.9763 24.2909 12.0765 24.0586 12.2873C23.8263 12.498 23.6963 12.7988 23.702 13.1124C23.683 13.4042 23.7952 13.6893 24.0079 13.89C24.2206 14.0906 24.5118 14.1859 24.802 14.1499H25.627C25.7535 14.1245 25.8829 14.1779 25.9547 14.2852C26.0265 14.3924 26.0265 14.5324 25.9547 14.6397C25.8829 14.747 25.7535 14.8004 25.627 14.7749H23.802V15.5249H25.627C25.942 15.5507 26.2527 15.439 26.4791 15.2185C26.7055 14.9981 26.8256 14.6905 26.8083 14.3749C26.824 14.086 26.7099 13.8052 26.497 13.6093C26.2841 13.4133 25.9948 13.3228 25.7083 13.3624V13.3874ZM28.1458 12.7624H29.6645L30.002 11.9999H28.1707C27.8592 11.9638 27.5472 12.064 27.3149 12.2748C27.0826 12.4855 26.9526 12.7863 26.9583 13.0999C26.9393 13.3917 27.0514 13.6768 27.2642 13.8775C27.4769 14.0781 27.768 14.1734 28.0583 14.1374H28.8645C28.991 14.112 29.1204 14.1654 29.1922 14.2727C29.264 14.3799 29.264 14.5199 29.1922 14.6272C29.1204 14.7345 28.991 14.7879 28.8645 14.7624H27.0583V15.5124H28.852C29.3561 15.5626 29.8299 15.2639 30.002 14.7874V13.9499C29.8218 13.5544 29.4093 13.318 28.977 13.3624H28.127C28.0005 13.3879 27.8711 13.3345 27.7993 13.2272C27.7275 13.1199 27.7275 12.9799 27.7993 12.8727C27.8711 12.7654 28.0005 12.712 28.127 12.7374L28.1458 12.7624Z" fill="#296DB6"/>
<path d="M2.64375 5.3125H1.53125L0 8.8375H0.925L1.25 8.125H2.89375L3.19375 8.8625H4.15625L2.64375 5.3125ZM1.4875 7.4125L1.83125 6.5875L2.05625 6.0375L2.28125 6.5875L2.61875 7.4125H1.4875ZM7.3125 5.3125L6.625 7.35L6.5125 7.7375L6.4 7.35L5.7 5.3125H4.31875V8.8375H5.15V6.525V5.9875L5.325 6.525L6.125 8.8375H6.875L7.69375 6.525L7.85625 5.9875V6.525V8.8375H8.68125V5.3125H7.3125ZM12.1875 6.0625V5.3125H9.375V8.8375H12.1875V8.0875H10.2063V7.4625H12.1375V6.7H10.2063V6.075L12.1875 6.0625ZM14.9438 7.5375C15.5033 7.47004 15.92 6.98843 15.9063 6.425C15.9108 6.10383 15.7755 5.79654 15.5356 5.58299C15.2956 5.36945 14.9747 5.27073 14.6563 5.3125H12.75V8.8375H13.6188V7.5875H14.0063L15.0562 8.8375H16.1188L14.9438 7.5375ZM14.6063 6.8375H13.6188V6.0625H14.6063C14.7169 6.05012 14.8277 6.0852 14.9111 6.15905C14.9945 6.23291 15.0427 6.33862 15.0437 6.45C15.0468 6.56274 14.9999 6.67107 14.9154 6.74584C14.831 6.82062 14.7178 6.85418 14.6063 6.8375ZM16.3188 5.3125V8.8375H17.175V5.3125H16.3188ZM19.4438 6.075H20.3625V5.3125H19.375C18.9101 5.28312 18.4557 5.45856 18.1312 5.7927C17.8067 6.12683 17.6446 6.5862 17.6875 7.05V7.1C17.6353 7.55717 17.7872 8.01411 18.1028 8.34897C18.4184 8.68383 18.8655 8.86256 19.325 8.8375H19.375L19.7188 8.0875H19.4375C19.1781 8.10083 18.9262 7.99824 18.7499 7.80749C18.5737 7.61673 18.4913 7.35753 18.525 7.1V7.05C18.4953 6.79449 18.5795 6.53884 18.7553 6.35102C18.9311 6.16321 19.1806 6.06225 19.4375 6.075H19.4438ZM22.4313 5.3125H21.3062L19.7938 8.8375H20.7063L21.0063 8.125H22.675L22.975 8.8625H23.9375L22.4313 5.3125ZM21.2812 7.4125L21.6063 6.5875L21.8313 6.0375L22.0438 6.5875L22.3813 7.4125H21.2812ZM26.6313 5.3125V7.1875V7.6125L26.3938 7.2125L25.1438 5.3375H24.1V8.8625H24.9375V6.875V6.4625L25.1625 6.85L26.4688 8.8375H27.5V5.3125H26.6313Z" fill="#296DB6"/>
</g>
<defs>
<clipPath id="clip0_1051_8170">
<rect width="30" height="20" fill="white"/>
</clipPath>
</defs>
</svg>
