<svg width="30" height="20" viewBox="0 0 30 20" fill="none" xmlns="http://www.w3.org/2000/svg">
<g clip-path="url(#clip0_1051_8168)">
<path d="M28.292 0H1.70801C0.764701 0 0 0.764701 0 1.70801V17.614C0 18.5573 0.764701 19.322 1.70801 19.322H28.292C29.2353 19.322 30 18.5573 30 17.614V1.70801C30 0.764701 29.2353 0 28.292 0Z" fill="#F9F9F9" stroke="black" stroke-width="0.8" stroke-linecap="round" stroke-linejoin="round"/>
<path d="M1.86108 7.61102H3.22808C3.53631 7.61102 3.7714 7.63896 3.93335 7.69484C4.15059 7.77089 4.33648 7.90643 4.49146 8.10043C4.64645 8.29443 4.76443 8.5324 4.8454 8.81332C4.92594 9.09475 4.96643 9.44137 4.96643 9.85369C4.96643 10.2158 4.92856 10.5283 4.85324 10.7906C4.76008 11.1113 4.62817 11.37 4.4562 11.5681C4.32647 11.7182 4.15146 11.8356 3.93074 11.9199C3.7653 11.982 3.54501 12.013 3.269 12.013H1.86108V7.61102ZM2.60902 8.35599V11.2712H3.16757C3.37654 11.2712 3.52716 11.2572 3.61989 11.2288C3.74092 11.1926 3.84193 11.132 3.9216 11.0456C4.0017 10.9598 4.067 10.818 4.1175 10.6214C4.168 10.4238 4.19325 10.1553 4.19325 9.81436C4.19325 9.47447 4.168 9.21323 4.1175 9.03113C4.067 8.84902 3.99647 8.70675 3.90549 8.60484C3.80844 8.49916 3.68863 8.42753 3.55938 8.3979C3.4549 8.36945 3.25028 8.35548 2.94554 8.35548L2.60902 8.35599ZM5.58072 12.0125V7.61102H6.32821V12.0125H5.58072ZM6.84889 10.5805L7.57679 10.4962C7.62033 10.7865 7.70914 10.9996 7.84322 11.1357C7.97688 11.2722 8.15754 11.34 8.38523 11.34C8.62598 11.34 8.80752 11.2795 8.92942 11.1584C9.05175 11.0374 9.1127 10.8956 9.1127 10.7337C9.11488 10.6369 9.08751 10.5424 9.03565 10.4678C8.98428 10.3948 8.8946 10.3312 8.7666 10.2774C8.6791 10.2412 8.47927 10.177 8.168 10.0849C7.76704 9.96698 7.48581 9.82161 7.32385 9.64985C7.0966 9.40722 6.98297 9.11181 6.98297 8.76365C6.98297 8.53964 7.03652 8.33012 7.14318 8.13508C7.25028 7.93953 7.4044 7.79105 7.60553 7.68914C7.80709 7.5867 8.04958 7.53601 8.33473 7.53601C8.79969 7.53601 9.14927 7.65707 9.38436 7.89918C9.61945 8.14129 9.74266 8.46463 9.75441 8.86919L9.00648 8.908C8.9747 8.68192 8.90635 8.51896 8.80056 8.42015C8.69564 8.32082 8.53761 8.27166 8.3269 8.27166C8.10966 8.27166 7.93943 8.32444 7.81667 8.43049C7.77919 8.46055 7.74867 8.50131 7.7279 8.54904C7.70714 8.59677 7.69679 8.64992 7.69782 8.70364C7.69782 8.80814 7.73482 8.89712 7.80883 8.9711C7.90331 9.06525 8.1323 9.16303 8.49669 9.26546C8.8602 9.36738 9.12925 9.47292 9.30339 9.58208C9.47753 9.69072 9.61423 9.84076 9.71262 10.0296C9.81144 10.2184 9.86064 10.4522 9.86064 10.7306C9.86064 10.9825 9.80187 11.2189 9.68389 11.4393C9.56591 11.6592 9.39917 11.8232 9.18323 11.9303C8.96773 12.0374 8.69912 12.0907 8.37783 12.0907C7.9094 12.0907 7.5498 11.9618 7.29861 11.7047C7.04784 11.4476 6.89808 11.0731 6.84889 10.5805ZM12.865 10.3943L13.5898 10.6675C13.4788 11.1481 13.2938 11.5045 13.0356 11.7383C12.777 11.9711 12.4488 12.0876 12.0513 12.0876C11.5594 12.0876 11.1554 11.8879 10.8384 11.4885C10.5219 11.0896 10.3639 10.5433 10.3639 9.85058C10.3639 9.11803 10.5228 8.54947 10.841 8.14388C11.1593 7.7388 11.5781 7.53601 12.0966 7.53601C12.5498 7.53601 12.9181 7.69484 13.2011 8.01352C13.3696 8.20131 13.4958 8.47187 13.5798 8.82418L12.8397 9.03422C12.7962 8.80607 12.7048 8.62553 12.5655 8.49361C12.4262 8.36169 12.2577 8.29546 12.0587 8.29546C11.7844 8.29546 11.5615 8.41239 11.3905 8.64726C11.2198 8.88109 11.134 9.26031 11.134 9.78489C11.134 10.341 11.2185 10.7378 11.3865 10.9737C11.5555 11.2101 11.774 11.3281 12.0439 11.3281C12.2424 11.3281 12.4135 11.2531 12.5568 11.1031C12.7 10.953 12.8027 10.7166 12.865 10.3943ZM14.0827 9.83868C14.0827 9.39066 14.1393 9.01405 14.2524 8.70986C14.3365 8.48585 14.4514 8.28459 14.5968 8.10611C14.7426 7.92815 14.9024 7.79571 15.0757 7.70984C15.3064 7.59395 15.5724 7.53601 15.8741 7.53601C16.4201 7.53601 16.8567 7.73726 17.1845 8.13923C17.5119 8.54172 17.6756 9.10148 17.6756 9.81799C17.6756 10.5283 17.5132 11.0844 17.188 11.4859C16.8628 11.8868 16.4283 12.0876 15.8841 12.0876C15.3334 12.0876 14.8959 11.8879 14.5703 11.4885C14.2455 11.0896 14.0827 10.5392 14.0827 9.83868ZM14.8532 9.80868C14.8532 10.3074 14.9503 10.6851 15.144 10.9422C15.3378 11.1993 15.5837 11.3281 15.8815 11.3281C16.1797 11.3281 16.4244 11.2003 16.6155 10.9453C16.8071 10.6902 16.9029 10.3074 16.9029 9.79678C16.9029 9.29237 16.8093 8.91626 16.6234 8.66794C16.437 8.41962 16.1902 8.29546 15.8815 8.29546C15.5733 8.29546 15.3251 8.42117 15.1362 8.6726C14.9477 8.92351 14.8532 9.30221 14.8532 9.80868ZM19.2019 12.0125L17.8776 7.61102H18.6887L19.6264 10.8687L20.5332 7.61102H21.3269L20.0004 12.0125H19.2019ZM21.7135 12.0125V7.61102H24.4597V8.35599H22.4614V9.33117H24.3208V10.073H22.461V11.2712H24.5306V12.0125H21.7135ZM25.1723 12.0125V7.61102H26.7465C27.1423 7.61102 27.43 7.65034 27.6094 7.73001C27.7888 7.80865 27.9324 7.94937 28.0404 8.15164C28.1479 8.35341 28.2015 8.58465 28.2015 8.84488C28.2015 9.17545 28.1201 9.44809 27.9568 9.6633C27.7931 9.87852 27.5489 10.0141 27.2241 10.0699C27.3856 10.1822 27.5193 10.3053 27.6246 10.4393C27.7296 10.5738 27.8715 10.8118 28.05 11.1538L28.5028 12.0125H27.6081L27.0674 11.0549C26.8754 10.7125 26.7439 10.4967 26.673 10.4083C26.6116 10.3265 26.5345 10.2635 26.4483 10.2246C26.3691 10.1915 26.2437 10.175 26.0718 10.175H25.9203V12.0125H25.1723ZM25.9203 9.47241H26.4731C26.8323 9.47241 27.0565 9.4543 27.1458 9.41861C27.2311 9.38594 27.3047 9.3204 27.3552 9.23236C27.4057 9.14441 27.4309 9.03423 27.4309 8.90179C27.4309 8.75383 27.3978 8.63431 27.3312 8.54326C27.2646 8.45221 27.171 8.3948 27.0496 8.37048C26.9886 8.36013 26.8071 8.35548 26.5036 8.35548H25.9203V9.47241Z" fill="#1A1A1A"/>
<path fill-rule="evenodd" clip-rule="evenodd" d="M18.3704 9.86127C18.3748 10.1749 18.3169 10.4863 18.1999 10.7774C18.083 11.0685 17.9093 11.3334 17.6891 11.5568C17.4689 11.7801 17.2064 11.9575 16.9171 12.0786C16.6277 12.1996 16.3171 12.262 16.0034 12.262C15.6897 12.262 15.3792 12.1996 15.0898 12.0786C14.8004 11.9575 14.538 11.7801 14.3178 11.5568C14.0975 11.3334 13.9239 11.0685 13.8069 10.7774C13.69 10.4863 13.632 10.1749 13.6365 9.86127C13.6453 9.23932 13.8985 8.64582 14.3415 8.20911C14.7844 7.77241 15.3814 7.52759 16.0034 7.52759C16.6254 7.52759 17.2225 7.77241 17.6654 8.20911C18.1083 8.64582 18.3616 9.23932 18.3704 9.86127Z" fill="#FC8100"/>
<path d="M29.8101 12.1953L8.18691 18.735L7.43091 19.1355H28.2061C29.1524 19.1355 29.8101 18.5138 29.8101 17.568V12.1953Z" fill="#FC8100"/>
</g>
<defs>
<clipPath id="clip0_1051_8168">
<rect width="30" height="20" fill="white"/>
</clipPath>
</defs>
</svg>
