<svg width="30" height="20" viewBox="0 0 30 20" fill="none" xmlns="http://www.w3.org/2000/svg">
<g clip-path="url(#clip0_1051_8167)">
<path d="M28.125 0H1.875C0.839466 0 0 0.839466 0 1.875V18.125C0 19.1605 0.839466 20 1.875 20H28.125C29.1605 20 30 19.1605 30 18.125V1.875C30 0.839466 29.1605 0 28.125 0Z" fill="#00579F"/>
<path fill-rule="evenodd" clip-rule="evenodd" d="M13.5537 13.3866H11.8442L12.9122 6.8208H14.6217L13.5537 13.3866Z" fill="#FAF9F9"/>
<path fill-rule="evenodd" clip-rule="evenodd" d="M10.4039 6.82092L8.77464 11.337L8.58146 10.365L8.00678 7.41262C8.00678 7.41262 7.93752 6.82092 7.19517 6.82092H4.50156L4.46997 6.9327C4.46997 6.9327 5.29373 7.1028 6.25842 7.68234L7.74313 13.3867H9.52429L12.2446 6.82092H10.4039Z" fill="#FAF9F9"/>
<path fill-rule="evenodd" clip-rule="evenodd" d="M21.9698 11.0645L22.8677 8.60658L23.3731 11.0645H21.9698ZM23.8506 13.3863H25.4203L24.051 6.82056H22.6781C22.0427 6.82056 21.8884 7.31019 21.8884 7.31019L19.3381 13.3863H21.1205L21.4765 12.4119H23.6501L23.8506 13.3863Z" fill="#FAF9F9"/>
<path fill-rule="evenodd" clip-rule="evenodd" d="M19.4739 8.39973L19.7181 6.99035C19.7181 6.99035 18.9648 6.70361 18.1799 6.70361C17.3319 6.70361 15.3175 7.07418 15.3175 8.87721C15.3175 10.5733 17.6818 10.5952 17.6818 11.4858C17.6818 12.3751 15.5617 12.2172 14.8606 11.6547L14.6067 13.1284C14.6067 13.1284 15.3697 13.5002 16.5373 13.5002C17.7025 13.5002 19.463 12.8952 19.463 11.2525C19.463 9.54545 17.0767 9.38629 17.0767 8.64394C17.0767 7.90158 18.7425 7.99635 19.4739 8.39973Z" fill="#FAF9F9"/>
<path d="M8.58146 10.3645L8.00678 7.41213C8.00678 7.41213 7.93752 6.82043 7.19517 6.82043H4.50156L4.46997 6.93221C4.46997 6.93221 5.76514 7.20072 7.00806 8.20551C8.1951 9.16656 8.58146 10.3645 8.58146 10.3645Z" fill="#FAA61A"/>
</g>
<defs>
<clipPath id="clip0_1051_8167">
<rect width="30" height="20" fill="white"/>
</clipPath>
</defs>
</svg>
