<svg width="72" height="73" viewBox="0 0 72 73" fill="none" xmlns="http://www.w3.org/2000/svg">
<rect y="0.5" width="72" height="72" rx="36" fill="#E51284" fill-opacity="0.1"/>
<mask id="mask0_825_3819" style="mask-type:alpha" maskUnits="userSpaceOnUse" x="16" y="16" width="40" height="41">
<rect x="16" y="16.5" width="40" height="40" fill="#D9D9D9"/>
</mask>
<g mask="url(#mask0_825_3819)">
<path d="M53.3191 48.5693L49.4719 44.7498V35.7915H40.4718L34.6663 29.9859H49.4719V26.3609H31.0829L26.7219 21.972H49.4719C50.6934 21.972 51.7303 22.3981 52.5825 23.2503C53.4347 24.1025 53.8608 25.1394 53.8608 26.3609V46.6398C53.8608 47.0187 53.8098 47.3632 53.708 47.6734C53.6061 47.9836 53.4765 48.2822 53.3191 48.5693ZM31.1385 35.7915H22.5274V46.6387H42.0275L31.1385 35.7915ZM22.5274 50.9998C21.3135 50.9998 20.2832 50.5764 19.4364 49.7297C18.5897 48.8829 18.1663 47.8526 18.1663 46.6387V26.3609C18.1663 25.3387 18.4904 24.428 19.1385 23.629C19.7867 22.8299 20.5923 22.3192 21.5552 22.097H22.1108L26.3746 26.3609H22.5274V29.9859H25.333L18.0552 22.7081C17.7404 22.3921 17.5853 22.0052 17.5899 21.5475C17.5946 21.0897 17.7655 20.6942 18.1027 20.3609C18.4251 20.0461 18.808 19.8887 19.2513 19.8887C19.6947 19.8887 20.083 20.0461 20.4163 20.3609L51.7357 51.6525C52.0506 51.9909 52.208 52.3765 52.208 52.8091C52.208 53.2418 52.0452 53.6248 51.7197 53.9581C51.3941 54.2914 51.0076 54.4581 50.5599 54.4581C50.1123 54.4581 49.7219 54.2917 49.3885 53.9588L46.4163 50.9998H22.5274Z" fill="#F92572"/>
</g>
</svg>
