<svg width="40" height="41" viewBox="0 0 40 41" fill="none" xmlns="http://www.w3.org/2000/svg">
<mask id="mask0_771_13590" style="mask-type:alpha" maskUnits="userSpaceOnUse" x="0" y="0" width="40" height="41">
<rect y="0.5" width="40" height="40" fill="#D9D9D9"/>
</mask>
<g mask="url(#mask0_771_13590)">
<path d="M20 22.4449L11.4444 31.0004C11.1759 31.269 10.8518 31.4032 10.4722 31.4032C10.0926 31.4032 9.76849 31.269 9.49996 31.0004C9.23143 30.7319 9.09717 30.4079 9.09717 30.0282C9.09717 29.6486 9.23143 29.3245 9.49996 29.056L18.0555 20.5004L9.49996 11.9449C9.23143 11.6764 9.09717 11.3523 9.09717 10.9727C9.09717 10.593 9.23143 10.269 9.49996 10.0004C9.76849 9.73192 10.0926 9.59766 10.4722 9.59766C10.8518 9.59766 11.1759 9.73192 11.4444 10.0004L20 18.556L28.5555 10.0004C28.824 9.73192 29.1481 9.59766 29.5278 9.59766C29.9074 9.59766 30.2314 9.73192 30.5 10.0004C30.7685 10.269 30.9028 10.593 30.9028 10.9727C30.9028 11.3523 30.7685 11.6764 30.5 11.9449L21.9444 20.5004L30.5 29.056C30.7685 29.3245 30.9028 29.6486 30.9028 30.0282C30.9028 30.4079 30.7685 30.7319 30.5 31.0004C30.2314 31.269 29.9074 31.4032 29.5278 31.4032C29.1481 31.4032 28.824 31.269 28.5555 31.0004L20 22.4449Z" fill="#0C1116"/>
</g>
</svg>
