<svg width="72" height="73" viewBox="0 0 72 73" fill="none" xmlns="http://www.w3.org/2000/svg">
<rect y="0.5" width="72" height="72" rx="36" fill="#E51284" fill-opacity="0.1"/>
<mask id="mask0_883_4514" style="mask-type:alpha" maskUnits="userSpaceOnUse" x="16" y="16" width="40" height="41">
<rect x="16" y="16.5" width="40" height="40" fill="#D9D9D9"/>
</mask>
<g mask="url(#mask0_883_4514)">
<path d="M36.0001 39.5557L28.0001 47.5557C27.5742 47.9816 27.0649 48.1946 26.4723 48.1946C25.8797 48.1946 25.3705 47.9816 24.9446 47.5557C24.5186 47.1297 24.3057 46.6205 24.3057 46.0279C24.3057 45.4353 24.5186 44.9261 24.9446 44.5001L32.9446 36.5001L24.9446 28.5001C24.5186 28.0742 24.3057 27.5649 24.3057 26.9723C24.3057 26.3797 24.5186 25.8705 24.9446 25.4446C25.3705 25.0186 25.8797 24.8057 26.4723 24.8057C27.0649 24.8057 27.5742 25.0186 28.0001 25.4446L36.0001 33.4446L44.0001 25.4446C44.4261 25.0186 44.9353 24.8057 45.5279 24.8057C46.1205 24.8057 46.6297 25.0186 47.0557 25.4446C47.4816 25.8705 47.6946 26.3797 47.6946 26.9723C47.6946 27.5649 47.4816 28.0742 47.0557 28.5001L39.0557 36.5001L47.0557 44.5001C47.4816 44.9261 47.6946 45.4353 47.6946 46.0279C47.6946 46.6205 47.4816 47.1297 47.0557 47.5557C46.6297 47.9816 46.1205 48.1946 45.5279 48.1946C44.9353 48.1946 44.4261 47.9816 44.0001 47.5557L36.0001 39.5557Z" fill="#F92572"/>
</g>
</svg>
