<svg width="72" height="73" viewBox="0 0 72 73" fill="none" xmlns="http://www.w3.org/2000/svg">
<rect y="0.5" width="72" height="72" rx="36" fill="#DCFFEE"/>
<mask id="mask0_771_13594" style="mask-type:alpha" maskUnits="userSpaceOnUse" x="16" y="16" width="40" height="41">
<rect x="16" y="16.5" width="40" height="40" fill="#D9D9D9"/>
</mask>
<g mask="url(#mask0_771_13594)">
<path d="M31.8055 46.5555C31.5277 46.5555 31.2568 46.5023 30.993 46.3958C30.7291 46.2893 30.4906 46.1296 30.2777 45.9166L22.861 38.5C22.4351 38.0741 22.2244 37.5532 22.2291 36.9375C22.2337 36.3217 22.449 35.8009 22.8749 35.375C23.3008 34.9491 23.8193 34.7361 24.4305 34.7361C25.0416 34.7361 25.5693 34.9491 26.0138 35.375L31.8055 41.1667L45.986 27.0138C46.412 26.5879 46.9282 26.368 47.5347 26.3541C48.1411 26.3402 48.662 26.5601 49.0971 27.0138C49.5231 27.4398 49.736 27.9629 49.736 28.5833C49.736 29.2037 49.5231 29.7268 49.0971 30.1527L33.3332 45.9166C33.1203 46.1296 32.8818 46.2893 32.618 46.3958C32.3541 46.5023 32.0832 46.5555 31.8055 46.5555Z" fill="#15E883"/>
</g>
</svg>
