<svg width="24" height="24" viewBox="0 0 24 24" fill="none" xmlns="http://www.w3.org/2000/svg">
<g opacity="0.8">
<mask id="mask0_771_6005" style="mask-type:alpha" maskUnits="userSpaceOnUse" x="0" y="0" width="24" height="24">
<rect width="24" height="24" transform="matrix(0 1 1 0 0 0)" fill="#D9D9D9"/>
</mask>
<g mask="url(#mask0_771_6005)">
<path d="M21.1 7.15039C20.85 6.90039 20.5542 6.77539 20.2125 6.77539C19.8708 6.77539 19.575 6.90039 19.325 7.15039L12 14.4754L4.65 7.12539C4.41667 6.89206 4.125 6.77539 3.775 6.77539C3.425 6.77539 3.125 6.90039 2.875 7.15039C2.625 7.40039 2.5 7.69622 2.5 8.03789C2.5 8.37956 2.625 8.67539 2.875 8.92539L11.3 17.3254C11.4 17.4254 11.5083 17.4962 11.625 17.5379C11.7417 17.5796 11.8667 17.6004 12 17.6004C12.1333 17.6004 12.2583 17.5796 12.375 17.5379C12.4917 17.4962 12.6 17.4254 12.7 17.3254L21.125 8.90039C21.3583 8.66706 21.475 8.37956 21.475 8.03789C21.475 7.69622 21.35 7.40039 21.1 7.15039Z" fill="#1C1B1F"/>
</g>
</g>
</svg>
