<svg width="24" height="24" viewBox="0 0 24 24" fill="none" xmlns="http://www.w3.org/2000/svg">
<g opacity="0.8">
<mask id="mask0_771_6600" style="mask-type:alpha" maskUnits="userSpaceOnUse" x="0" y="0" width="24" height="24">
<rect y="24" width="24" height="24" transform="rotate(-90 0 24)" fill="#D9D9D9"/>
</mask>
<g mask="url(#mask0_771_6600)">
<path d="M21.1 16.8496C20.85 17.0996 20.5542 17.2246 20.2125 17.2246C19.8708 17.2246 19.575 17.0996 19.325 16.8496L12 9.52461L4.65 16.8746C4.41667 17.1079 4.125 17.2246 3.775 17.2246C3.425 17.2246 3.125 17.0996 2.875 16.8496C2.625 16.5996 2.5 16.3038 2.5 15.9621C2.5 15.6204 2.625 15.3246 2.875 15.0746L11.3 6.67461C11.4 6.57461 11.5083 6.50378 11.625 6.46211C11.7417 6.42044 11.8667 6.39961 12 6.39961C12.1333 6.39961 12.2583 6.42044 12.375 6.46211C12.4917 6.50378 12.6 6.57461 12.7 6.67461L21.125 15.0996C21.3583 15.3329 21.475 15.6204 21.475 15.9621C21.475 16.3038 21.35 16.5996 21.1 16.8496Z" fill="#1C1B1F"/>
</g>
</g>
</svg>
