<svg width="12" height="13" viewBox="0 0 12 13" fill="none" xmlns="http://www.w3.org/2000/svg">
<path fill-rule="evenodd" clip-rule="evenodd" d="M6 11.754C9.05 11.754 11.5 9.30397 11.5 6.25397C11.5 3.20397 9.05 0.753967 6 0.753967C2.95 0.753967 0.5 3.20397 0.5 6.25397C0.5 9.30397 2.95 11.754 6 11.754ZM6.09991 7.20397C6.29991 7.15397 7.94991 6.55397 7.94991 5.25397C7.94991 4.40397 7.39991 3.65397 6.59991 3.40397C5.54991 3.00397 4.39991 3.55397 4.04991 4.60397C3.99991 4.85397 4.09991 5.15397 4.34991 5.15397C4.59991 5.25397 4.89991 5.10397 4.99991 4.85397C5.19991 4.35397 5.79991 4.05397 6.29991 4.25397C6.69991 4.40397 6.94991 4.75397 6.94991 5.20397C6.94991 5.75397 6.09991 6.15397 5.79991 6.25397C5.54991 6.35397 5.39991 6.65397 5.49991 6.90397C5.54991 7.10397 5.74991 7.25397 5.94991 7.25397C5.99991 7.25397 6.04991 7.25397 6.09991 7.20397ZM10.5 6.25397C10.5 3.75397 8.5 1.75397 6 1.75397C3.5 1.75397 1.5 3.75397 1.5 6.25397C1.5 8.75397 3.5 10.754 6 10.754C8.5 10.754 10.5 8.75397 10.5 6.25397ZM6.25009 8.35397C6.30009 8.35397 6.35009 8.40397 6.35009 8.40397C6.40009 8.45397 6.45009 8.50397 6.40009 8.55397C6.45009 8.60397 6.45009 8.70397 6.45009 8.75397C6.45009 8.90397 6.40009 9.00397 6.30009 9.10397C6.20009 9.20397 6.10009 9.25397 5.95009 9.25397C5.80009 9.25397 5.70009 9.20397 5.60009 9.10397C5.50009 9.00397 5.45009 8.90397 5.45009 8.75397C5.45009 8.69539 5.46725 8.65397 5.48146 8.61965C5.49151 8.59539 5.50009 8.57468 5.50009 8.55397C5.50009 8.50397 5.55009 8.45397 5.60009 8.40397C5.65009 8.35397 5.70009 8.30397 5.75009 8.30397C5.85009 8.25397 5.95009 8.25397 6.05009 8.25397C6.07884 8.28272 6.09106 8.29494 6.10576 8.30013C6.11663 8.30397 6.12884 8.30397 6.15009 8.30397C6.17509 8.30397 6.18759 8.31647 6.20009 8.32897C6.21259 8.34147 6.22509 8.35397 6.25009 8.35397Z" fill="#E0E0E0"/>
<mask id="mask0_984_3067" style="mask-type:alpha" maskUnits="userSpaceOnUse" x="0" y="0" width="12" height="12">
<path fill-rule="evenodd" clip-rule="evenodd" d="M6 11.754C9.05 11.754 11.5 9.30397 11.5 6.25397C11.5 3.20397 9.05 0.753967 6 0.753967C2.95 0.753967 0.5 3.20397 0.5 6.25397C0.5 9.30397 2.95 11.754 6 11.754ZM6.09991 7.20397C6.29991 7.15397 7.94991 6.55397 7.94991 5.25397C7.94991 4.40397 7.39991 3.65397 6.59991 3.40397C5.54991 3.00397 4.39991 3.55397 4.04991 4.60397C3.99991 4.85397 4.09991 5.15397 4.34991 5.15397C4.59991 5.25397 4.89991 5.10397 4.99991 4.85397C5.19991 4.35397 5.79991 4.05397 6.29991 4.25397C6.69991 4.40397 6.94991 4.75397 6.94991 5.20397C6.94991 5.75397 6.09991 6.15397 5.79991 6.25397C5.54991 6.35397 5.39991 6.65397 5.49991 6.90397C5.54991 7.10397 5.74991 7.25397 5.94991 7.25397C5.99991 7.25397 6.04991 7.25397 6.09991 7.20397ZM10.5 6.25397C10.5 3.75397 8.5 1.75397 6 1.75397C3.5 1.75397 1.5 3.75397 1.5 6.25397C1.5 8.75397 3.5 10.754 6 10.754C8.5 10.754 10.5 8.75397 10.5 6.25397ZM6.25009 8.35397C6.30009 8.35397 6.35009 8.40397 6.35009 8.40397C6.40009 8.45397 6.45009 8.50397 6.40009 8.55397C6.45009 8.60397 6.45009 8.70397 6.45009 8.75397C6.45009 8.90397 6.40009 9.00397 6.30009 9.10397C6.20009 9.20397 6.10009 9.25397 5.95009 9.25397C5.80009 9.25397 5.70009 9.20397 5.60009 9.10397C5.50009 9.00397 5.45009 8.90397 5.45009 8.75397C5.45009 8.69539 5.46725 8.65397 5.48146 8.61965C5.49151 8.59539 5.50009 8.57468 5.50009 8.55397C5.50009 8.50397 5.55009 8.45397 5.60009 8.40397C5.65009 8.35397 5.70009 8.30397 5.75009 8.30397C5.85009 8.25397 5.95009 8.25397 6.05009 8.25397C6.07884 8.28272 6.09106 8.29494 6.10576 8.30013C6.11663 8.30397 6.12884 8.30397 6.15009 8.30397C6.17509 8.30397 6.18759 8.31647 6.20009 8.32897C6.21259 8.34147 6.22509 8.35397 6.25009 8.35397Z" fill="white"/>
</mask>
<g mask="url(#mask0_984_3067)">
<rect y="0.253967" width="12" height="12" fill="#28A2FF" fill-opacity="0.5"/>
</g>
</svg>
