<svg width="20" height="21" viewBox="0 0 20 21" fill="none" xmlns="http://www.w3.org/2000/svg">
<mask id="mask0_771_13636" style="mask-type:alpha" maskUnits="userSpaceOnUse" x="0" y="0" width="20" height="21">
<rect y="0.5" width="20" height="20" fill="#D9D9D9"/>
</mask>
<g mask="url(#mask0_771_13636)">
<path d="M4.25 18C3.76875 18 3.35677 17.8286 3.01406 17.4859C2.67135 17.1432 2.5 16.7312 2.5 16.25V4.75C2.5 4.26875 2.67135 3.85677 3.01406 3.51406C3.35677 3.17135 3.76875 3 4.25 3H9.21108C9.44536 3 9.64931 3.08681 9.82292 3.26042C9.99653 3.43403 10.0833 3.63889 10.0833 3.875C10.0833 4.11111 9.99653 4.31597 9.82292 4.48958C9.64931 4.66319 9.44536 4.75 9.21108 4.75H4.25V16.25H15.75V11.2889C15.75 11.0546 15.8368 10.8507 16.0104 10.6771C16.184 10.5035 16.3889 10.4167 16.625 10.4167C16.8611 10.4167 17.066 10.5035 17.2396 10.6771C17.4132 10.8507 17.5 11.0546 17.5 11.2889V16.25C17.5 16.7312 17.3286 17.1432 16.9859 17.4859C16.6432 17.8286 16.2312 18 15.75 18H4.25ZM7.4991 12.9991C7.33303 12.833 7.25 12.6285 7.25 12.3854C7.25 12.1424 7.33333 11.9375 7.5 11.7708L14.5208 4.75H12.7083C12.4722 4.75 12.2674 4.66319 12.0938 4.48958C11.9201 4.31597 11.8333 4.11111 11.8333 3.875C11.8333 3.63889 11.9201 3.43403 12.0938 3.26042C12.2674 3.08681 12.4722 3 12.7083 3H16.625C16.8611 3 17.066 3.08681 17.2396 3.26042C17.4132 3.43403 17.5 3.63889 17.5 3.875V7.79167C17.5 8.02778 17.4132 8.23264 17.2396 8.40625C17.066 8.57986 16.8611 8.66667 16.625 8.66667C16.3889 8.66667 16.184 8.57986 16.0104 8.40625C15.8368 8.23264 15.75 8.02778 15.75 7.79167V5.97917L8.70833 13.0208C8.54844 13.1875 8.35222 13.2708 8.11967 13.2708C7.88711 13.2708 7.68026 13.1803 7.4991 12.9991Z" fill="#2176F0"/>
</g>
</svg>
