<svg width="42" height="23" viewBox="0 0 42 23" fill="none" xmlns="http://www.w3.org/2000/svg">
<rect x="0.5" y="0.5" width="41" height="22" rx="11" fill="#15E883" fill-opacity="0.1"/>
<path d="M16.0028 7.27273V16H14.7926L10.3565 9.59943H10.2756V16H8.95881V7.27273H10.1776L14.6179 13.6818H14.6989V7.27273H16.0028ZM20.6424 16.1321C19.9975 16.1321 19.4421 15.9943 18.9762 15.7188C18.5131 15.4403 18.1552 15.0497 17.9023 14.5469C17.6523 14.0412 17.5273 13.4489 17.5273 12.7699C17.5273 12.0994 17.6523 11.5085 17.9023 10.9972C18.1552 10.4858 18.5075 10.0866 18.9592 9.79972C19.4137 9.51278 19.945 9.36932 20.5529 9.36932C20.9222 9.36932 21.2802 9.4304 21.6268 9.55256C21.9734 9.67472 22.2844 9.86648 22.56 10.1278C22.8356 10.3892 23.0529 10.7287 23.212 11.1463C23.3711 11.5611 23.4506 12.0653 23.4506 12.6591V13.1108H18.2475V12.1562H22.2021C22.2021 11.821 22.1339 11.5241 21.9975 11.2656C21.8612 11.0043 21.6694 10.7983 21.4222 10.6477C21.1779 10.4972 20.891 10.4219 20.5614 10.4219C20.2035 10.4219 19.891 10.5099 19.6239 10.6861C19.3597 10.8594 19.1552 11.0866 19.0103 11.3679C18.8683 11.6463 18.7972 11.9489 18.7972 12.2756V13.0213C18.7972 13.4588 18.8739 13.831 19.0273 14.1378C19.1836 14.4446 19.4009 14.679 19.6793 14.8409C19.9577 15 20.283 15.0795 20.6552 15.0795C20.8967 15.0795 21.1168 15.0455 21.3157 14.9773C21.5146 14.9062 21.6864 14.8011 21.8313 14.6619C21.9762 14.5227 22.087 14.3509 22.1637 14.1463L23.3697 14.3636C23.2731 14.7187 23.0998 15.0298 22.8498 15.2969C22.6026 15.5611 22.2915 15.767 21.9165 15.9148C21.5444 16.0597 21.1197 16.1321 20.6424 16.1321ZM26.2717 16L24.3455 9.45455H25.6623L26.945 14.2614H27.0089L28.2958 9.45455H29.6126L30.891 14.2401H30.9549L32.229 9.45455H33.5458L31.6239 16H30.3242L28.9947 11.2741H28.8967L27.5671 16H26.2717Z" fill="#07AD5E"/>
<rect x="0.5" y="0.5" width="41" height="22" rx="11" stroke="#15E883"/>
</svg>
