<svg width="68" height="22" fill="none" xmlns="http://www.w3.org/2000/svg"><g clip-path="url(#Logo__a)"><path d="M6.442 9.637c.978.106 1.76.28 2.347.52.595.24 1.026.555 1.293.946.267.392.4.88.4 1.467 0 .64-.209 1.2-.627 1.68-.409.471-.977.836-1.706 1.093-.73.25-1.56.374-2.494.374-1.04 0-1.92-.13-2.64-.387-.72-.258-1.257-.6-1.613-1.027-.356-.435-.533-.91-.533-1.426 0-.09.026-.16.08-.214a.336.336 0 0 1 .226-.08H3.91c.186 0 .337.058.453.174.151.142.32.24.507.293a3.6 3.6 0 0 0 .786.067c.845 0 1.267-.13 1.267-.387 0-.107-.058-.196-.173-.267-.107-.08-.303-.146-.587-.2a12.473 12.473 0 0 0-1.227-.186c-1.217-.143-2.15-.445-2.8-.907-.649-.471-.973-1.133-.973-1.987 0-.604.182-1.137.547-1.6.364-.462.88-.822 1.546-1.08.676-.257 1.458-.386 2.347-.386.924 0 1.733.146 2.427.44.693.284 1.222.64 1.586 1.066.365.427.547.845.547 1.254 0 .089-.031.16-.093.213a.311.311 0 0 1-.227.08H6.975a.62.62 0 0 1-.413-.16 1.138 1.138 0 0 0-.347-.213c-.133-.054-.337-.08-.613-.08-.596 0-.893.124-.893.373 0 .133.115.24.346.32.231.071.694.147 1.387.227ZM21.637 6.25c.098 0 .182.036.253.107a.346.346 0 0 1 .107.253v2.147a.346.346 0 0 1-.107.253.346.346 0 0 1-.253.107H18.77v6.106a.346.346 0 0 1-.107.254.346.346 0 0 1-.253.106h-2.747a.346.346 0 0 1-.253-.106.346.346 0 0 1-.107-.254V9.117h-2.866a.346.346 0 0 1-.254-.107.346.346 0 0 1-.106-.253V6.61c0-.098.035-.182.106-.253a.346.346 0 0 1 .254-.107h9.2Zm12.021 8.92a.265.265 0 0 1 .027.12c0 .08-.031.151-.093.213a.272.272 0 0 1-.2.08h-3.027a.676.676 0 0 1-.347-.093.553.553 0 0 1-.213-.24l-1.173-2.64h-1.12v2.613a.346.346 0 0 1-.107.254.346.346 0 0 1-.253.106h-2.88a.346.346 0 0 1-.254-.106.346.346 0 0 1-.106-.254V6.61c0-.098.035-.182.106-.253a.346.346 0 0 1 .254-.107h5.186c.8 0 1.498.129 2.094.387.604.257 1.066.63 1.386 1.12.32.489.48 1.062.48 1.72 0 1.209-.466 2.084-1.4 2.626l1.64 3.067Zm-4.48-5.027c.196 0 .347-.062.454-.186a.765.765 0 0 0 .16-.494.821.821 0 0 0-.16-.506c-.098-.151-.25-.227-.454-.227h-1.666v1.413h1.666Zm12.328 2.707h2.414c.097 0 .182.036.253.107.071.07.107.155.107.253v2.013a.347.347 0 0 1-.107.254.347.347 0 0 1-.253.106h-8.454a.346.346 0 0 1-.253-.106.346.346 0 0 1-.107-.254V13.21c0-.098.036-.182.107-.253a.346.346 0 0 1 .253-.107h2.44V8.983h-2.44a.346.346 0 0 1-.253-.106.346.346 0 0 1-.107-.254V6.61c0-.098.036-.182.107-.253a.346.346 0 0 1 .253-.107h8.454c.097 0 .182.036.253.107.071.07.107.155.107.253v2.013a.347.347 0 0 1-.107.254.347.347 0 0 1-.253.106h-2.414v3.867Zm13.688-6.6c.098 0 .183.036.254.107a.345.345 0 0 1 .106.253v8.613a.345.345 0 0 1-.106.254.346.346 0 0 1-.254.106h-2.146a.647.647 0 0 1-.534-.28l-2.906-3.706v3.626a.346.346 0 0 1-.107.254.346.346 0 0 1-.253.106h-2.48a.346.346 0 0 1-.254-.106.345.345 0 0 1-.106-.254V6.61c0-.098.035-.182.106-.253a.346.346 0 0 1 .254-.107h2.16a.62.62 0 0 1 .52.267l2.907 4.013V6.61c0-.098.035-.182.106-.253a.346.346 0 0 1 .254-.107h2.48ZM67.15 9.957c.097 0 .182.035.253.106a.35.35 0 0 1 .106.254v1.413c0 1.351-.462 2.356-1.386 3.013-.916.65-2.13.974-3.64.974-1.511 0-2.73-.325-3.653-.974-.916-.657-1.374-1.67-1.374-3.04V10.13c0-.907.222-1.658.667-2.253.444-.605 1.044-1.05 1.8-1.334.755-.284 1.609-.426 2.56-.426 1.137 0 2.075.186 2.813.56.738.373 1.271.795 1.6 1.266.338.471.507.854.507 1.147a.29.29 0 0 1-.094.213.271.271 0 0 1-.2.08h-3.013c-.178 0-.307-.049-.387-.146-.275-.347-.684-.52-1.226-.52-.41 0-.751.093-1.027.28-.267.186-.4.426-.4.72v2.266c0 .356.134.636.4.84.267.196.609.294 1.027.294.55 0 .955-.094 1.213-.28.267-.196.404-.422.413-.68h-.826a.345.345 0 0 1-.254-.107.345.345 0 0 1-.106-.253v-1.48c0-.098.035-.183.106-.254a.345.345 0 0 1 .254-.106h3.867Z" fill="#BEBCBA"/></g><defs><clipPath id="Logo__a"><path fill="#fff" transform="translate(.458 6)" d="M0 0h67.083v10H0z"/></clipPath></defs></svg>