<svg width="135" height="20" viewBox="0 0 135 20" fill="none" xmlns="http://www.w3.org/2000/svg">
<g clip-path="url(#clip0_721_3007)">
<path d="M11.967 7.2734C13.9226 7.48673 15.487 7.8334 16.6603 8.3134C17.8514 8.7934 18.7136 9.42448 19.247 10.2067C19.7803 10.989 20.047 11.9667 20.047 13.1401C20.047 14.4201 19.6292 15.5401 18.7936 16.5001C17.9759 17.4423 16.8381 18.1711 15.3803 18.6867C13.9226 19.1845 12.2603 19.4334 10.3936 19.4334C8.31365 19.4334 6.55365 19.1756 5.11365 18.6601C3.67365 18.1445 2.59809 17.4601 1.88698 16.6067C1.17587 15.7356 0.820312 14.7845 0.820312 13.7534C0.820312 13.5756 0.873646 13.4334 0.980312 13.3267C1.10475 13.2201 1.25587 13.1667 1.43365 13.1667H6.90031C7.27365 13.1667 7.57587 13.2823 7.80698 13.5134C8.1092 13.7978 8.44698 13.9934 8.82031 14.1001C9.19365 14.189 9.71806 14.2334 10.3936 14.2334C12.0826 14.2334 12.927 13.9756 12.927 13.4601C12.927 13.2467 12.8114 13.069 12.5803 12.9267C12.367 12.7667 11.9759 12.6334 11.407 12.5267C10.8559 12.4023 10.0381 12.2778 8.95365 12.1534C6.51809 11.869 4.65142 11.2645 3.35365 10.3401C2.05587 9.39782 1.40698 8.0734 1.40698 6.36673C1.40698 5.15784 1.77142 4.09117 2.50031 3.16673C3.2292 2.24229 4.26031 1.52229 5.59365 1.00673C6.94475 0.491176 8.50923 0.233398 10.287 0.233398C12.1359 0.233398 13.7536 0.526732 15.1403 1.1134C16.527 1.68229 17.5847 2.3934 18.3136 3.24673C19.0426 4.10007 19.407 4.93562 19.407 5.7534C19.407 5.93117 19.3447 6.0734 19.2203 6.18007C19.1136 6.28673 18.9626 6.34007 18.767 6.34007H13.0336C12.7314 6.34007 12.4559 6.2334 12.207 6.02007C12.0114 5.84229 11.7803 5.70007 11.5136 5.5934C11.247 5.48673 10.8381 5.4334 10.287 5.4334C9.0959 5.4334 8.50031 5.68229 8.50031 6.18007C8.50031 6.44673 8.7314 6.66007 9.19365 6.82007C9.6559 6.96229 10.5803 7.1134 11.967 7.2734ZM42.3566 0.500064C42.5521 0.500064 42.721 0.571176 42.8632 0.713398C43.0055 0.855624 43.0766 1.02451 43.0766 1.22007V5.5134C43.0766 5.70896 43.0055 5.87784 42.8632 6.02007C42.721 6.16229 42.5521 6.2334 42.3566 6.2334H36.6232V18.4467C36.6232 18.6423 36.5521 18.8111 36.4099 18.9534C36.2676 19.0956 36.0988 19.1667 35.9032 19.1667H30.4099C30.2143 19.1667 30.0455 19.0956 29.9032 18.9534C29.761 18.8111 29.6899 18.6423 29.6899 18.4467V6.2334H23.9566C23.761 6.2334 23.5921 6.16229 23.4499 6.02007C23.3076 5.87784 23.2366 5.70896 23.2366 5.5134V1.22007C23.2366 1.02451 23.3076 0.855624 23.4499 0.713398C23.5921 0.571176 23.761 0.500064 23.9566 0.500064H42.3566ZM66.3995 18.3401C66.4351 18.4111 66.4528 18.4911 66.4528 18.5801C66.4528 18.7401 66.3906 18.8823 66.2661 19.0067C66.1595 19.1134 66.0261 19.1667 65.8661 19.1667H59.8128C59.5639 19.1667 59.3328 19.1045 59.1195 18.9801C58.9239 18.8556 58.7817 18.6957 58.6928 18.5001L56.3461 13.2201H54.1061V18.4467C54.1061 18.6423 54.0351 18.8111 53.8928 18.9534C53.7506 19.0956 53.5817 19.1667 53.3861 19.1667H47.6261C47.4306 19.1667 47.2617 19.0956 47.1195 18.9534C46.9772 18.8111 46.9061 18.6423 46.9061 18.4467V1.22007C46.9061 1.02451 46.9772 0.855624 47.1195 0.713398C47.2617 0.571176 47.4306 0.500064 47.6261 0.500064H57.9995C59.5995 0.500064 60.9951 0.757843 62.1861 1.2734C63.3951 1.78896 64.3195 2.53562 64.9595 3.5134C65.5995 4.49117 65.9195 5.63784 65.9195 6.9534C65.9195 9.37115 64.9861 11.1223 63.1195 12.2067L66.3995 18.3401ZM57.4395 8.28673C57.8306 8.28673 58.1328 8.16229 58.3461 7.9134C58.5595 7.64673 58.6661 7.31784 58.6661 6.92673C58.6661 6.53562 58.5595 6.19784 58.3461 5.9134C58.1506 5.61117 57.8484 5.46007 57.4395 5.46007H54.1061V8.28673H57.4395ZM82.0957 13.7001H86.9228C87.1178 13.7001 87.287 13.7711 87.4295 13.9134C87.5711 14.0556 87.6428 14.2245 87.6428 14.4201V18.4467C87.6428 18.6423 87.5711 18.8111 87.4295 18.9534C87.287 19.0956 87.1178 19.1667 86.9228 19.1667H70.0157C69.8201 19.1667 69.6513 19.0956 69.5091 18.9534C69.3668 18.8111 69.2957 18.6423 69.2957 18.4467V14.4201C69.2957 14.2245 69.3668 14.0556 69.5091 13.9134C69.6513 13.7711 69.8201 13.7001 70.0157 13.7001H74.8957V5.96673H70.0157C69.8201 5.96673 69.6513 5.89562 69.5091 5.7534C69.3668 5.61117 69.2957 5.44229 69.2957 5.24673V1.22007C69.2957 1.02451 69.3668 0.855624 69.5091 0.713398C69.6513 0.571176 69.8201 0.500064 70.0157 0.500064H86.9228C87.1178 0.500064 87.287 0.571176 87.4295 0.713398C87.5711 0.855624 87.6428 1.02451 87.6428 1.22007V5.24673C87.6428 5.44229 87.5711 5.61117 87.4295 5.7534C87.287 5.89562 87.1178 5.96673 86.9228 5.96673H82.0957V13.7001ZM109.472 0.500064C109.668 0.500064 109.836 0.571176 109.979 0.713398C110.121 0.855624 110.192 1.02451 110.192 1.22007V18.4467C110.192 18.6423 110.121 18.8111 109.979 18.9534C109.836 19.0956 109.668 19.1667 109.472 19.1667H105.179C104.752 19.1667 104.396 18.9801 104.112 18.6067L98.2986 11.1934V18.4467C98.2986 18.6423 98.2278 18.8111 98.0853 18.9534C97.9428 19.0956 97.7745 19.1667 97.5786 19.1667H92.6186C92.4228 19.1667 92.2545 19.0956 92.112 18.9534C91.9695 18.8111 91.8986 18.6423 91.8986 18.4467V1.22007C91.8986 1.02451 91.9695 0.855624 92.112 0.713398C92.2545 0.571176 92.4228 0.500064 92.6186 0.500064H96.9386C97.3653 0.500064 97.712 0.677843 97.9786 1.0334L103.792 9.06007V1.22007C103.792 1.02451 103.863 0.855624 104.005 0.713398C104.148 0.571176 104.316 0.500064 104.512 0.500064H109.472ZM133.382 7.9134C133.577 7.9134 133.746 7.98451 133.889 8.12673C134.03 8.26896 134.102 8.43782 134.102 8.6334V11.4601C134.102 14.1623 133.177 16.1711 131.329 17.4867C129.497 18.7845 127.07 19.4334 124.049 19.4334C121.026 19.4334 118.59 18.7845 116.742 17.4867C114.91 16.1711 113.995 14.1445 113.995 11.4067V8.26007C113.995 6.44673 114.439 4.94451 115.329 3.7534C116.217 2.54451 117.417 1.65562 118.929 1.08673C120.439 0.517843 122.146 0.233398 124.049 0.233398C126.324 0.233398 128.199 0.606732 129.675 1.3534C131.15 2.10007 132.217 2.94451 132.875 3.88673C133.55 4.82896 133.889 5.5934 133.889 6.18007C133.889 6.34007 133.826 6.48229 133.702 6.60673C133.595 6.7134 133.462 6.76673 133.302 6.76673H127.275C126.919 6.76673 126.662 6.66896 126.502 6.4734C125.95 5.78007 125.133 5.4334 124.049 5.4334C123.23 5.4334 122.546 5.62007 121.995 5.9934C121.462 6.36673 121.195 6.84673 121.195 7.4334V11.9667C121.195 12.6778 121.462 13.2378 121.995 13.6467C122.529 14.0378 123.213 14.2334 124.049 14.2334C125.15 14.2334 125.959 14.0467 126.475 13.6734C127.009 13.2823 127.284 12.829 127.302 12.3134H125.649C125.453 12.3134 125.284 12.2423 125.142 12.1001C124.999 11.9578 124.929 11.789 124.929 11.5934V8.6334C124.929 8.43782 124.999 8.26896 125.142 8.12673C125.284 7.98451 125.453 7.9134 125.649 7.9134H133.382Z" fill="#605BFF"/>
</g>
<defs>
<clipPath id="clip0_721_3007">
<rect width="134.167" height="20" fill="white"/>
</clipPath>
</defs>
</svg>
