<svg width="4592" height="1084" viewBox="0 0 4592 1084" fill="none" xmlns="http://www.w3.org/2000/svg">
<g clip-path="url(#clip0_1_59)">
<path d="M27.8707 1083.69H562.249C568.903 1083.69 575.332 1081.32 580.407 1076.92L1194.98 547.958C1214.49 531.153 1202.65 499.234 1176.82 499.234H642.326C635.672 499.234 629.243 501.603 624.168 506.001L9.71227 1034.85C-9.79963 1051.66 2.04286 1083.58 27.8707 1083.58V1083.69Z" fill="#006AB7"/>
<path d="M650.123 719.732C735.762 719.732 805.187 650.308 805.187 564.668C805.187 479.029 735.762 409.604 650.123 409.604C564.484 409.604 495.059 479.029 495.059 564.668C495.059 650.308 564.484 719.732 650.123 719.732Z" fill="#FFEB84"/>
<path d="M75.8541 584.567H610.232C616.886 584.567 623.315 582.199 628.391 577.8L1242.85 48.7234C1262.36 32.0311 1250.52 0 1224.8 0H690.31C683.655 0 677.227 2.3685 672.151 6.76713L57.6957 535.731C38.1838 552.536 50.0263 584.455 75.8541 584.455V584.567Z" fill="#F92572"/>
<path d="M1751.88 766.714C1782.13 766.714 1805.81 761.293 1822.93 750.451C1840.62 739.609 1849.46 724.772 1849.46 705.941C1849.46 692.816 1846.89 682.259 1841.76 674.27C1836.62 665.71 1826.35 658.007 1810.94 651.159C1795.54 643.741 1772.43 636.037 1741.61 628.048C1691.97 615.494 1654.59 599.516 1629.48 580.114C1604.94 560.141 1592.67 531.609 1592.67 494.517C1592.67 455.143 1608.94 423.757 1641.46 400.361C1673.99 376.394 1717.93 364.411 1773.28 364.411C1840.05 364.411 1897.4 381.815 1945.33 416.624L1904.24 477.398C1863.73 450.578 1820.93 437.168 1775.85 437.168C1718.79 437.168 1690.25 453.716 1690.25 486.814C1690.25 498.226 1693.39 507.642 1699.67 515.06C1706.52 522.479 1717.93 529.612 1733.91 536.46C1749.89 542.737 1773.57 550.155 1804.95 558.715C1854.03 572.41 1890.55 589.244 1914.52 609.217C1939.05 629.189 1951.32 659.148 1951.32 699.093C1951.32 745.315 1932.21 780.41 1893.97 804.377C1855.74 827.773 1808.38 839.471 1751.88 839.471C1677.13 839.471 1615.21 818.357 1566.14 776.13L1616.64 717.924C1635.47 732.761 1656.3 744.744 1679.13 753.875C1702.52 762.434 1726.77 766.714 1751.88 766.714ZM2478.26 804.377C2461.14 815.219 2441.17 823.779 2418.35 830.056C2395.52 836.333 2371.55 839.471 2346.44 839.471C2295.09 839.471 2255.43 826.346 2227.47 800.097C2199.5 773.277 2185.52 737.041 2185.52 691.389V446.583H2085.37V376.394H2185.52V275.39L2281.39 264.263V376.394H2434.61L2423.48 446.583H2281.39V690.533C2281.39 715.071 2287.67 733.332 2300.22 745.315C2312.78 756.728 2332.75 762.434 2360.14 762.434C2390.38 762.434 2418.35 755.301 2444.02 741.035L2478.26 804.377ZM2934.16 365.267C2957.55 365.267 2980.38 368.976 3002.64 376.394L2986.37 543.307H2917.89V450.863C2886.51 451.434 2859.12 463.988 2835.72 488.526C2812.9 513.063 2794.64 547.587 2780.94 592.097V759.867H2871.67V828.344H2618.31V759.867H2685.07V444.871H2618.31V376.394H2757.83L2774.95 480.822C2792.64 442.018 2814.04 413.201 2839.15 394.369C2864.82 374.967 2896.5 365.267 2934.16 365.267ZM3307.88 154.699C3326.14 154.699 3340.98 160.691 3352.39 172.674C3364.37 184.087 3370.37 198.353 3370.37 215.473C3370.37 232.592 3364.37 246.858 3352.39 258.271C3340.98 269.684 3326.14 275.39 3307.88 275.39C3289.05 275.39 3273.93 269.684 3262.51 258.271C3251.1 246.858 3245.39 232.592 3245.39 215.473C3245.39 197.783 3251.1 183.231 3262.51 171.818C3274.5 160.405 3289.62 154.699 3307.88 154.699ZM3373.79 758.155H3497.05V828.344H3143.54V758.155H3277.92V446.583H3147.81V376.394H3373.79V758.155ZM3640.52 376.394H3723.55L3730.39 435.456C3749.22 412.63 3771.19 395.225 3796.3 383.242C3821.98 370.688 3848.8 364.411 3876.76 364.411C3918.42 364.411 3949.81 376.109 3970.92 399.505C3992.03 422.902 4002.59 455.999 4002.59 498.797V828.344H3906.72V546.731C3906.72 518.77 3905.01 497.37 3901.59 482.534C3898.73 467.126 3892.74 455.999 3883.61 449.151C3874.48 441.733 3860.79 438.024 3842.52 438.024C3821.98 438.024 3802.29 444.301 3783.46 456.855C3765.2 469.409 3749.51 485.102 3736.38 503.933V828.344H3640.52V376.394ZM4559.49 398.649C4542.94 404.356 4524.11 408.35 4503 410.633C4482.45 412.345 4457.63 413.201 4428.53 413.201C4455.92 425.755 4476.46 441.447 4490.16 460.279C4503.85 479.11 4510.7 501.936 4510.7 528.756C4510.7 558.429 4503.28 584.679 4488.44 607.505C4474.18 630.33 4453.63 648.306 4426.81 661.431C4399.99 674.555 4368.32 681.118 4331.8 681.118C4306.12 681.118 4285.58 678.55 4270.17 673.414C4263.9 677.979 4259.05 683.686 4255.62 690.533C4252.2 696.81 4250.49 703.658 4250.49 711.076C4250.49 733.902 4269.03 745.315 4306.12 745.315H4384.87C4416.83 745.315 4445.36 750.736 4470.47 761.578C4495.58 772.421 4514.98 787.543 4528.67 806.945C4542.94 825.776 4550.07 847.175 4550.07 871.142C4550.07 916.223 4530.67 951.032 4491.87 975.57C4453.06 1000.68 4397.14 1013.23 4324.1 1013.23C4273.31 1013.23 4233.08 1007.81 4203.41 996.969C4174.3 986.697 4153.48 971.29 4140.92 950.747C4128.94 930.774 4122.95 904.81 4122.95 872.854H4208.54C4208.54 889.973 4211.68 903.383 4217.96 913.084C4224.81 923.356 4236.5 930.774 4253.05 935.339C4269.6 940.475 4293.57 943.043 4324.95 943.043C4370.61 943.043 4403.42 937.337 4423.39 925.924C4443.36 915.082 4453.35 898.818 4453.35 877.134C4453.35 858.873 4445.36 844.607 4429.38 834.336C4413.97 824.635 4392.86 819.784 4366.04 819.784H4288.15C4247.63 819.784 4216.82 811.51 4195.7 794.961C4175.16 778.412 4164.89 757.584 4164.89 732.476C4164.89 717.068 4169.17 702.232 4177.73 687.965C4186.29 673.699 4198.56 661.431 4214.54 651.159C4187.71 636.893 4168.03 619.774 4155.47 599.801C4143.49 579.258 4137.5 554.15 4137.5 524.476C4137.5 493.091 4145.49 465.414 4161.47 441.447C4177.44 416.91 4199.7 398.079 4228.23 384.954C4256.76 371.258 4289.29 364.411 4325.81 364.411C4374.89 364.981 4413.69 361.557 4442.22 354.139C4471.32 346.721 4502.14 335.022 4534.67 319.044L4559.49 398.649ZM4326.67 431.176C4296.42 431.176 4273.6 439.736 4258.19 456.855C4242.78 473.403 4235.08 495.944 4235.08 524.476C4235.08 553.579 4242.78 576.69 4258.19 593.809C4274.17 610.358 4297.28 618.632 4327.52 618.632C4356.05 618.632 4377.74 610.358 4392.58 593.809C4407.41 577.261 4414.83 553.579 4414.83 522.764C4414.83 461.705 4385.44 431.176 4326.67 431.176Z" fill="#003669"/>
</g>
<defs>
<clipPath id="clip0_1_59">
<rect width="4592" height="1084" fill="white"/>
</clipPath>
</defs>
</svg>
