<svg width="200" height="200" viewBox="0 0 200 200" fill="none" xmlns="http://www.w3.org/2000/svg">
<g clip-path="url(#clip0_2_140)">
<circle cx="100" cy="100" r="100" fill="#605BFF"/>
<path d="M31.36 97.728C33.7067 97.984 35.584 98.4 36.992 98.976C38.4213 99.552 39.456 100.309 40.096 101.248C40.736 102.187 41.056 103.36 41.056 104.768C41.056 106.304 40.5547 107.648 39.552 108.8C38.5707 109.931 37.2053 110.805 35.456 111.424C33.7067 112.021 31.712 112.32 29.472 112.32C26.976 112.32 24.864 112.011 23.136 111.392C21.408 110.773 20.1173 109.952 19.264 108.928C18.4107 107.883 17.984 106.741 17.984 105.504C17.984 105.291 18.048 105.12 18.176 104.992C18.3253 104.864 18.5067 104.8 18.72 104.8H25.28C25.728 104.8 26.0907 104.939 26.368 105.216C26.7307 105.557 27.136 105.792 27.584 105.92C28.032 106.027 28.6613 106.08 29.472 106.08C31.4987 106.08 32.512 105.771 32.512 105.152C32.512 104.896 32.3733 104.683 32.096 104.512C31.84 104.32 31.3707 104.16 30.688 104.032C30.0267 103.883 29.0453 103.733 27.744 103.584C24.8213 103.243 22.5813 102.517 21.024 101.408C19.4667 100.277 18.688 98.688 18.688 96.64C18.688 95.1893 19.1253 93.9093 20 92.8C20.8747 91.6907 22.112 90.8267 23.712 90.208C25.3333 89.5893 27.2107 89.28 29.344 89.28C31.5627 89.28 33.504 89.632 35.168 90.336C36.832 91.0187 38.1013 91.872 38.976 92.896C39.8507 93.92 40.288 94.9227 40.288 95.904C40.288 96.1173 40.2133 96.288 40.064 96.416C39.936 96.544 39.7547 96.608 39.52 96.608H32.64C32.2773 96.608 31.9467 96.48 31.648 96.224C31.4133 96.0107 31.136 95.84 30.816 95.712C30.496 95.584 30.0053 95.52 29.344 95.52C27.9147 95.52 27.2 95.8187 27.2 96.416C27.2 96.736 27.4773 96.992 28.032 97.184C28.5867 97.3547 29.696 97.536 31.36 97.728ZM67.8275 89.6C68.0622 89.6 68.2648 89.6853 68.4355 89.856C68.6062 90.0267 68.6915 90.2293 68.6915 90.464V95.616C68.6915 95.8507 68.6062 96.0533 68.4355 96.224C68.2648 96.3947 68.0622 96.48 67.8275 96.48H60.9475V111.136C60.9475 111.371 60.8622 111.573 60.6915 111.744C60.5208 111.915 60.3182 112 60.0835 112H53.4915C53.2568 112 53.0542 111.915 52.8835 111.744C52.7128 111.573 52.6275 111.371 52.6275 111.136V96.48H45.7475C45.5128 96.48 45.3102 96.3947 45.1395 96.224C44.9688 96.0533 44.8835 95.8507 44.8835 95.616V90.464C44.8835 90.2293 44.9688 90.0267 45.1395 89.856C45.3102 89.6853 45.5128 89.6 45.7475 89.6H67.8275ZM96.679 111.008C96.7217 111.093 96.743 111.189 96.743 111.296C96.743 111.488 96.6683 111.659 96.519 111.808C96.391 111.936 96.231 112 96.039 112H88.775C88.4763 112 88.199 111.925 87.943 111.776C87.7083 111.627 87.5377 111.435 87.431 111.2L84.615 104.864H81.927V111.136C81.927 111.371 81.8417 111.573 81.671 111.744C81.5003 111.915 81.2977 112 81.063 112H74.151C73.9163 112 73.7137 111.915 73.543 111.744C73.3723 111.573 73.287 111.371 73.287 111.136V90.464C73.287 90.2293 73.3723 90.0267 73.543 89.856C73.7137 89.6853 73.9163 89.6 74.151 89.6H86.599C88.519 89.6 90.1937 89.9093 91.623 90.528C93.0737 91.1467 94.183 92.0427 94.951 93.216C95.719 94.3893 96.103 95.7653 96.103 97.344C96.103 100.245 94.983 102.347 92.743 103.648L96.679 111.008ZM85.927 98.944C86.3963 98.944 86.759 98.7947 87.015 98.496C87.271 98.176 87.399 97.7813 87.399 97.312C87.399 96.8427 87.271 96.4373 87.015 96.096C86.7803 95.7333 86.4177 95.552 85.927 95.552H81.927V98.944H85.927ZM115.515 105.44H121.307C121.541 105.44 121.744 105.525 121.915 105.696C122.085 105.867 122.171 106.069 122.171 106.304V111.136C122.171 111.371 122.085 111.573 121.915 111.744C121.744 111.915 121.541 112 121.307 112H101.019C100.784 112 100.581 111.915 100.411 111.744C100.24 111.573 100.155 111.371 100.155 111.136V106.304C100.155 106.069 100.24 105.867 100.411 105.696C100.581 105.525 100.784 105.44 101.019 105.44H106.875V96.16H101.019C100.784 96.16 100.581 96.0747 100.411 95.904C100.24 95.7333 100.155 95.5307 100.155 95.296V90.464C100.155 90.2293 100.24 90.0267 100.411 89.856C100.581 89.6853 100.784 89.6 101.019 89.6H121.307C121.541 89.6 121.744 89.6853 121.915 89.856C122.085 90.0267 122.171 90.2293 122.171 90.464V95.296C122.171 95.5307 122.085 95.7333 121.915 95.904C121.744 96.0747 121.541 96.16 121.307 96.16H115.515V105.44ZM148.366 89.6C148.601 89.6 148.803 89.6853 148.974 89.856C149.145 90.0267 149.23 90.2293 149.23 90.464V111.136C149.23 111.371 149.145 111.573 148.974 111.744C148.803 111.915 148.601 112 148.366 112H143.214C142.702 112 142.275 111.776 141.934 111.328L134.958 102.432V111.136C134.958 111.371 134.873 111.573 134.702 111.744C134.531 111.915 134.329 112 134.094 112H128.142C127.907 112 127.705 111.915 127.534 111.744C127.363 111.573 127.278 111.371 127.278 111.136V90.464C127.278 90.2293 127.363 90.0267 127.534 89.856C127.705 89.6853 127.907 89.6 128.142 89.6H133.326C133.838 89.6 134.254 89.8133 134.574 90.24L141.55 99.872V90.464C141.55 90.2293 141.635 90.0267 141.806 89.856C141.977 89.6853 142.179 89.6 142.414 89.6H148.366ZM177.058 98.496C177.292 98.496 177.495 98.5813 177.666 98.752C177.836 98.9227 177.922 99.1253 177.922 99.36V102.752C177.922 105.995 176.812 108.405 174.594 109.984C172.396 111.541 169.484 112.32 165.858 112.32C162.231 112.32 159.308 111.541 157.09 109.984C154.892 108.405 153.794 105.973 153.794 102.688V98.912C153.794 96.736 154.327 94.9333 155.394 93.504C156.46 92.0533 157.9 90.9867 159.714 90.304C161.527 89.6213 163.575 89.28 165.858 89.28C168.588 89.28 170.839 89.728 172.61 90.624C174.38 91.52 175.66 92.5333 176.45 93.664C177.26 94.7947 177.666 95.712 177.666 96.416C177.666 96.608 177.591 96.7787 177.442 96.928C177.314 97.056 177.154 97.12 176.962 97.12H169.73C169.303 97.12 168.994 97.0027 168.802 96.768C168.14 95.936 167.159 95.52 165.858 95.52C164.876 95.52 164.055 95.744 163.394 96.192C162.754 96.64 162.434 97.216 162.434 97.92V103.36C162.434 104.213 162.754 104.885 163.394 105.376C164.034 105.845 164.855 106.08 165.858 106.08C167.18 106.08 168.151 105.856 168.77 105.408C169.41 104.939 169.74 104.395 169.762 103.776H167.778C167.543 103.776 167.34 103.691 167.17 103.52C166.999 103.349 166.914 103.147 166.914 102.912V99.36C166.914 99.1253 166.999 98.9227 167.17 98.752C167.34 98.5813 167.543 98.496 167.778 98.496H177.058Z" fill="white"/>
</g>
<defs>
<clipPath id="clip0_2_140">
<rect width="200" height="200" fill="white"/>
</clipPath>
</defs>
</svg>
