<?xml version="1.0" encoding="UTF-8"?>
<svg xmlns="http://www.w3.org/2000/svg" xmlns:xlink="http://www.w3.org/1999/xlink" width="81px" height="19px" viewBox="0 0 80 19" version="1.1">
<g id="surface1">
<path style=" stroke:none;fill-rule:nonzero;fill:rgb(0%,41.568627%,71.764706%);fill-opacity:1;" d="M 0.484375 18.996094 L 9.796875 18.996094 C 9.910156 18.996094 10.023438 18.953125 10.113281 18.878906 L 20.820312 9.605469 C 21.160156 9.308594 20.953125 8.75 20.503906 8.75 L 11.191406 8.75 C 11.074219 8.75 10.964844 8.792969 10.875 8.871094 L 0.167969 18.140625 C -0.171875 18.433594 0.0351562 18.992188 0.484375 18.992188 Z M 0.484375 18.996094 "/>
<path style=" stroke:none;fill-rule:nonzero;fill:rgb(100%,92.156863%,51.764706%);fill-opacity:1;" d="M 11.328125 12.617188 C 12.820312 12.617188 14.027344 11.398438 14.027344 9.898438 C 14.027344 8.398438 12.820312 7.179688 11.328125 7.179688 C 9.835938 7.179688 8.625 8.398438 8.625 9.898438 C 8.625 11.398438 9.835938 12.617188 11.328125 12.617188 Z M 11.328125 12.617188 "/>
<path style=" stroke:none;fill-rule:nonzero;fill:rgb(97.647059%,14.509804%,44.705882%);fill-opacity:1;" d="M 1.320312 10.246094 L 10.632812 10.246094 C 10.746094 10.246094 10.859375 10.207031 10.949219 10.128906 L 21.652344 0.855469 C 21.992188 0.5625 21.789062 0 21.339844 0 L 12.027344 0 C 11.910156 0 11.800781 0.0429688 11.710938 0.117188 L 1.003906 9.390625 C 0.664062 9.683594 0.871094 10.246094 1.320312 10.246094 Z M 1.320312 10.246094 "/>
<path style=" stroke:none;fill-rule:nonzero;fill:rgb(0%,21.176471%,41.176471%);fill-opacity:1;" d="M 30.523438 13.445312 C 31.050781 13.445312 31.460938 13.351562 31.761719 13.160156 C 32.070312 12.972656 32.222656 12.710938 32.222656 12.382812 C 32.222656 12.152344 32.179688 11.964844 32.089844 11.828125 C 32 11.675781 31.820312 11.542969 31.550781 11.421875 C 31.285156 11.292969 30.878906 11.15625 30.34375 11.015625 C 29.480469 10.796875 28.828125 10.515625 28.390625 10.175781 C 27.960938 9.824219 27.75 9.324219 27.75 8.675781 C 27.75 7.984375 28.03125 7.433594 28.597656 7.023438 C 29.164062 6.605469 29.929688 6.394531 30.894531 6.394531 C 32.058594 6.394531 33.058594 6.699219 33.894531 7.308594 L 33.175781 8.375 C 32.472656 7.90625 31.726562 7.671875 30.941406 7.671875 C 29.945312 7.671875 29.449219 7.960938 29.449219 8.539062 C 29.449219 8.742188 29.503906 8.90625 29.613281 9.035156 C 29.730469 9.164062 29.929688 9.289062 30.210938 9.410156 C 30.488281 9.519531 30.902344 9.652344 31.449219 9.800781 C 32.300781 10.039062 32.9375 10.335938 33.355469 10.6875 C 33.785156 11.035156 33.996094 11.5625 33.996094 12.261719 C 33.996094 13.070312 33.664062 13.6875 33 14.105469 C 32.332031 14.515625 31.507812 14.722656 30.523438 14.722656 C 29.21875 14.722656 28.140625 14.351562 27.285156 13.613281 L 28.167969 12.589844 C 28.496094 12.851562 28.859375 13.0625 29.253906 13.222656 C 29.664062 13.371094 30.085938 13.445312 30.523438 13.445312 Z M 43.179688 14.105469 C 42.878906 14.296875 42.53125 14.445312 42.132812 14.558594 C 41.738281 14.667969 41.320312 14.722656 40.882812 14.722656 C 39.988281 14.722656 39.296875 14.492188 38.808594 14.03125 C 38.320312 13.5625 38.078125 12.925781 38.078125 12.125 L 38.078125 7.835938 L 36.332031 7.835938 L 36.332031 6.605469 L 38.078125 6.605469 L 38.078125 4.835938 L 39.75 4.640625 L 39.75 6.605469 L 42.417969 6.605469 L 42.222656 7.835938 L 39.75 7.835938 L 39.75 12.109375 C 39.75 12.542969 39.859375 12.863281 40.078125 13.070312 C 40.296875 13.273438 40.644531 13.371094 41.121094 13.371094 C 41.648438 13.371094 42.132812 13.246094 42.582031 12.996094 Z M 51.121094 6.410156 C 51.527344 6.410156 51.925781 6.476562 52.316406 6.605469 L 52.03125 9.53125 L 50.839844 9.53125 L 50.839844 7.910156 C 50.292969 7.921875 49.8125 8.140625 49.40625 8.570312 C 49.007812 9 48.691406 9.605469 48.453125 10.386719 L 48.453125 13.328125 L 50.03125 13.328125 L 50.03125 14.527344 L 45.617188 14.527344 L 45.617188 13.328125 L 46.78125 13.328125 L 46.78125 7.804688 L 45.617188 7.804688 L 45.617188 6.605469 L 48.050781 6.605469 L 48.347656 8.433594 C 48.65625 7.753906 49.027344 7.25 49.464844 6.921875 C 49.914062 6.578125 50.464844 6.410156 51.121094 6.410156 Z M 57.632812 2.71875 C 57.949219 2.71875 58.210938 2.824219 58.40625 3.035156 C 58.617188 3.234375 58.722656 3.484375 58.722656 3.785156 C 58.722656 4.085938 58.617188 4.335938 58.40625 4.535156 C 58.210938 4.734375 57.949219 4.835938 57.632812 4.835938 C 57.304688 4.835938 57.042969 4.734375 56.84375 4.535156 C 56.644531 4.335938 56.542969 4.085938 56.542969 3.785156 C 56.542969 3.472656 56.644531 3.21875 56.84375 3.019531 C 57.050781 2.820312 57.316406 2.71875 57.632812 2.71875 Z M 58.78125 13.296875 L 60.929688 13.296875 L 60.929688 14.527344 L 54.769531 14.527344 L 54.769531 13.296875 L 57.109375 13.296875 L 57.109375 7.835938 L 54.84375 7.835938 L 54.84375 6.605469 L 58.78125 6.605469 Z M 63.429688 6.605469 L 64.875 6.605469 L 64.992188 7.640625 C 65.320312 7.238281 65.703125 6.933594 66.140625 6.726562 C 66.589844 6.503906 67.058594 6.394531 67.542969 6.394531 C 68.269531 6.394531 68.816406 6.601562 69.183594 7.011719 C 69.550781 7.421875 69.738281 8 69.738281 8.75 L 69.738281 14.527344 L 68.066406 14.527344 L 68.066406 9.589844 C 68.066406 9.101562 68.035156 8.726562 67.976562 8.464844 C 67.925781 8.195312 67.824219 8 67.664062 7.878906 C 67.503906 7.75 67.265625 7.683594 66.949219 7.683594 C 66.589844 7.683594 66.246094 7.796875 65.917969 8.015625 C 65.601562 8.234375 65.328125 8.511719 65.097656 8.839844 L 65.097656 14.527344 L 63.429688 14.527344 Z M 79.4375 6.996094 C 79.152344 7.09375 78.824219 7.164062 78.453125 7.203125 C 78.097656 7.234375 77.664062 7.25 77.15625 7.25 C 77.632812 7.46875 77.992188 7.746094 78.230469 8.074219 C 78.46875 8.40625 78.589844 8.804688 78.589844 9.277344 C 78.589844 9.796875 78.460938 10.253906 78.203125 10.65625 C 77.953125 11.054688 77.59375 11.371094 77.128906 11.601562 C 76.660156 11.832031 76.109375 11.945312 75.472656 11.945312 C 75.023438 11.945312 74.667969 11.902344 74.398438 11.8125 C 74.289062 11.890625 74.203125 11.992188 74.144531 12.109375 C 74.085938 12.222656 74.054688 12.339844 74.054688 12.472656 C 74.054688 12.871094 74.378906 13.070312 75.023438 13.070312 L 76.398438 13.070312 C 76.953125 13.070312 77.449219 13.167969 77.886719 13.355469 C 78.324219 13.546875 78.664062 13.8125 78.902344 14.152344 C 79.152344 14.480469 79.273438 14.855469 79.273438 15.277344 C 79.273438 16.066406 78.9375 16.675781 78.261719 17.109375 C 77.585938 17.546875 76.609375 17.769531 75.339844 17.769531 C 74.453125 17.769531 73.753906 17.671875 73.234375 17.484375 C 72.726562 17.300781 72.367188 17.03125 72.148438 16.671875 C 71.9375 16.324219 71.832031 15.867188 71.832031 15.308594 L 73.324219 15.308594 C 73.324219 15.605469 73.378906 15.84375 73.488281 16.011719 C 73.609375 16.191406 73.8125 16.324219 74.101562 16.402344 C 74.386719 16.492188 74.804688 16.539062 75.351562 16.539062 C 76.148438 16.539062 76.71875 16.4375 77.066406 16.238281 C 77.414062 16.046875 77.589844 15.761719 77.589844 15.382812 C 77.589844 15.0625 77.449219 14.8125 77.171875 14.632812 C 76.902344 14.460938 76.535156 14.375 76.070312 14.375 L 74.710938 14.375 C 74.003906 14.375 73.46875 14.230469 73.101562 13.941406 C 72.742188 13.652344 72.5625 13.285156 72.5625 12.847656 C 72.5625 12.578125 72.640625 12.316406 72.789062 12.066406 C 72.9375 11.816406 73.152344 11.601562 73.429688 11.421875 C 72.960938 11.171875 72.617188 10.871094 72.398438 10.519531 C 72.191406 10.160156 72.085938 9.71875 72.085938 9.199219 C 72.085938 8.648438 72.226562 8.164062 72.503906 7.746094 C 72.78125 7.316406 73.171875 6.984375 73.667969 6.753906 C 74.164062 6.515625 74.730469 6.394531 75.367188 6.394531 C 76.222656 6.40625 76.898438 6.34375 77.394531 6.214844 C 77.902344 6.085938 78.441406 5.878906 79.007812 5.597656 Z M 75.382812 7.566406 C 74.855469 7.566406 74.457031 7.714844 74.191406 8.015625 C 73.921875 8.304688 73.785156 8.699219 73.785156 9.199219 C 73.785156 9.710938 73.921875 10.117188 74.191406 10.414062 C 74.46875 10.707031 74.871094 10.851562 75.398438 10.851562 C 75.894531 10.851562 76.273438 10.707031 76.53125 10.414062 C 76.789062 10.125 76.917969 9.710938 76.917969 9.171875 C 76.917969 8.101562 76.40625 7.566406 75.382812 7.566406 Z M 75.382812 7.566406 "/>
</g>
</svg>
