<svg width="20" height="20" viewBox="0 0 20 20" fill="none" xmlns="http://www.w3.org/2000/svg">
<g clip-path="url(#clip0_1459_8172)">
<path d="M4.54999 17.5C4.06999 17.5 3.65999 17.33 3.30999 16.99C2.96999 16.65 2.79999 16.24 2.79999 15.75V4.25C2.79999 3.77 2.96999 3.36 3.30999 3.01C3.64999 2.67 4.05999 2.5 4.54999 2.5H16.05C16.53 2.5 16.94 2.67 17.29 3.01C17.63 3.35 17.8 3.76 17.8 4.25V6.19H16.05V4.25H4.54999V15.75H16.05V13.79H17.8V15.75C17.8 16.23 17.63 16.64 17.29 16.99C16.95 17.33 16.54 17.5 16.05 17.5H4.54999Z" fill="black"/>
<path d="M10.89 9.52995L7.18999 7.03995C6.88999 6.79995 6.48999 7.03995 6.48999 7.51995V12.51C6.48999 12.87 6.88999 13.22 7.18999 12.99L10.79 10.5C11.19 10.26 11.19 9.78995 10.89 9.54995V9.52995Z" fill="black"/>
<path d="M17.75 6.2002H13.68C12.973 6.2002 12.4 6.77327 12.4 7.4802V12.5202C12.4 13.2271 12.973 13.8002 13.68 13.8002H17.75C18.4569 13.8002 19.03 13.2271 19.03 12.5202V7.4802C19.03 6.77327 18.4569 6.2002 17.75 6.2002Z" fill="black"/>
<path d="M1.75997 8.28002H6.49997V11.72H1.75997C1.32997 11.72 0.969971 11.37 0.969971 10.93V9.06002C0.969971 8.63002 1.31997 8.27002 1.75997 8.27002V8.28002Z" fill="black"/>
<path d="M15.71 11.3202C16.439 11.3202 17.03 10.7292 17.03 10.0002C17.03 9.27116 16.439 8.68018 15.71 8.68018C14.9809 8.68018 14.39 9.27116 14.39 10.0002C14.39 10.7292 14.9809 11.3202 15.71 11.3202Z" fill="white"/>
</g>
<defs>
<clipPath id="clip0_1459_8172">
<rect width="18.06" height="15" fill="white" transform="translate(0.969971 2.5)"/>
</clipPath>
</defs>
</svg>
