<svg width="30" height="20" viewBox="0 0 30 20" fill="none" xmlns="http://www.w3.org/2000/svg">
<g clip-path="url(#clip0_1051_8169)">
<path d="M28.125 0H1.875C0.839466 0 0 0.839466 0 1.875V18.125C0 19.1605 0.839466 20 1.875 20H28.125C29.1605 20 30 19.1605 30 18.125V1.875C30 0.839466 29.1605 0 28.125 0Z" fill="#201A30"/>
<path d="M18.0348 4.9541H11.9727V14.8579H18.0348V4.9541Z" fill="#F26122"/>
<path d="M12.6236 9.90623C12.6136 7.97864 13.4891 6.15317 14.9986 4.95436C12.4159 2.92331 8.70601 3.21824 6.47668 5.63183C4.24736 8.04541 4.24736 11.767 6.47668 14.1806C8.70601 16.5942 12.4159 16.8892 14.9986 14.8581C13.4891 13.6593 12.6136 11.8338 12.6236 9.90623Z" fill="#EA1D25"/>
<path d="M24.5831 13.8072V13.6053H24.6722V13.5637H24.4644V13.6053H24.5475V13.8072H24.5831ZM24.9869 13.8072V13.5637H24.9275L24.8562 13.7359L24.779 13.5637H24.7197V13.8072H24.7612V13.6231L24.8325 13.7834H24.88L24.9453 13.6231V13.8072H24.9869Z" fill="#F69E1E"/>
<path d="M25.1888 9.90628C25.1872 12.3165 23.8106 14.5146 21.6428 15.5682C19.475 16.6217 16.8961 16.3461 15 14.8582C17.7313 12.7076 18.2043 8.75102 16.0569 6.01722C15.749 5.62135 15.3941 5.26445 15 4.9544C16.8961 3.46646 19.475 3.19081 21.6428 4.24438C23.8106 5.29795 25.1872 7.49604 25.1888 9.90628Z" fill="#F69E1E"/>
</g>
<defs>
<clipPath id="clip0_1051_8169">
<rect width="30" height="20" fill="white"/>
</clipPath>
</defs>
</svg>
