<svg width="48" height="32" viewBox="0 0 48 32" fill="none" xmlns="http://www.w3.org/2000/svg">
<path fill-rule="evenodd" clip-rule="evenodd" d="M23.9998 22.089C22.586 23.2806 20.7521 24 18.7482 24C14.2767 24 10.6519 20.4183 10.6519 16C10.6519 11.5817 14.2767 8 18.7482 8C20.7521 8 22.586 8.71936 23.9998 9.911C25.4136 8.71936 27.2474 8 29.2514 8C33.7228 8 37.3477 11.5817 37.3477 16C37.3477 20.4183 33.7228 24 29.2514 24C27.2474 24 25.4136 23.2806 23.9998 22.089Z" fill="#ED0006"/>
<path fill-rule="evenodd" clip-rule="evenodd" d="M24.0003 22.0888C25.741 20.6214 26.8448 18.4381 26.8448 16C26.8448 13.5619 25.741 11.3786 24.0003 9.91125C25.4141 8.71946 27.2481 8 29.2522 8C33.7237 8 37.3485 11.5817 37.3485 16C37.3485 20.4183 33.7237 24 29.2522 24C27.2481 24 25.4141 23.2805 24.0003 22.0888Z" fill="#F9A000"/>
<path fill-rule="evenodd" clip-rule="evenodd" d="M24 22.089C25.7409 20.6216 26.8448 18.4382 26.8448 16C26.8448 13.5618 25.7409 11.3783 24 9.91098C22.2591 11.3783 21.1552 13.5618 21.1552 16C21.1552 18.4382 22.2591 20.6216 24 22.089Z" fill="#FF5E00"/>
</svg>
